<?xml version="1.0" encoding="UTF-8" standalone="no"?>
<!-- Created with Inkscape (http://www.inkscape.org/) -->

<svg
   width="270.61649mm"
   height="28.20458mm"
   viewBox="0 0 270.61649 28.20458"
   version="1.1"
   id="svg1"
   inkscape:version="1.4.2 (f4327f4, 2025-05-13)"
   sodipodi:docname="mariokart-logo.svg"
   xmlns:inkscape="http://www.inkscape.org/namespaces/inkscape"
   xmlns:sodipodi="http://sodipodi.sourceforge.net/DTD/sodipodi-0.dtd"
   xmlns="http://www.w3.org/2000/svg"
   xmlns:svg="http://www.w3.org/2000/svg">
  <sodipodi:namedview
     id="namedview1"
     pagecolor="#ffffff"
     bordercolor="#000000"
     borderopacity="0.25"
     inkscape:showpageshadow="2"
     inkscape:pageopacity="0.0"
     inkscape:pagecheckerboard="0"
     inkscape:deskcolor="#d1d1d1"
     inkscape:document-units="mm"
     inkscape:zoom="0.76167929"
     inkscape:cx="357.76212"
     inkscape:cy="171.33195"
     inkscape:window-width="1920"
     inkscape:window-height="1057"
     inkscape:window-x="-8"
     inkscape:window-y="-8"
     inkscape:window-maximized="1"
     inkscape:current-layer="layer1" />
  <defs
     id="defs1" />
  <g
     inkscape:label="Layer 1"
     inkscape:groupmode="layer"
     id="layer1"
     transform="translate(-10.318743,-103.1875)">
    <path
       d="m 274.74994,127.52917 h 1.00541 v 2.14312 h 0.47625 v -2.14312 h 1.00542 v -0.47625 h -2.46062 v 0.47625 z m 5.23875,-0.47625 -0.79375,1.905 -0.79375,-1.905 h -0.55563 v 2.61937 h 0.47625 v -1.69333 l 0.66146,1.69333 h 0.42333 l 0.66146,-1.69333 v 1.69333 h 0.47625 v -2.61937 z"
       id="path3"
       style="stroke-width:0.264583" />
    <path
       class="st0"
       d="m 280.27973,104.35167 h -35.13667 c -0.42333,0 -0.74083,0.34395 -0.74083,0.74083 v 0.52917 c -0.15875,-0.0529 -0.29104,-0.10584 -0.44979,-0.15875 -3.04271,-1.00542 -6.61459,-1.11125 -9.02229,-1.11125 h -20.08188 c -0.42333,0 -0.74083,0.34395 -0.74083,0.74083 v 1.29646 l -0.47625,-1.40229 c -0.13229,-0.37042 -0.50271,-0.66146 -0.89958,-0.66146 h -38.02063 c -0.39687,0 -0.76729,0.15875 -1.05833,0.42333 l -2.72521,2.72521 v -2.40771 c 0,-0.42333 -0.34396,-0.74083 -0.74083,-0.74083 H 154.4439 c -0.42334,0 -0.74084,0.34396 -0.74084,0.74083 v 3.36021 c -3.38666,-3.30729 -8.65187,-5.23875 -14.20812,-5.23875 -4.52438,0 -8.78417,1.24354 -12.09146,3.51896 v -1.61396 c 0,-0.42333 -0.34396,-0.74083 -0.74083,-0.74083 h -15.79563 c -0.42333,0 -0.74083,0.34395 -0.74083,0.74083 v 1.03187 c -0.50271,-0.23812 -1.05833,-0.44979 -1.61396,-0.66145 -3.01625,-1.00542 -6.58812,-1.11125 -8.995832,-1.11125 H 79.408065 c -0.423333,0 -0.740833,0.34395 -0.740833,0.74083 v 1.56104 l -0.555625,-1.66687 c -0.132292,-0.39688 -0.502708,-0.66146 -0.899583,-0.66146 h -20.955 c -0.423334,0 -0.767292,0.26458 -0.899584,0.66146 l -2.381249,7.11729 -0.9525,-7.06438 c -0.05292,-0.39687 -0.396875,-0.71437 -0.820209,-0.71437 H 38.106607 c -0.396875,0 -0.767291,0.13229 -1.084791,0.37041 l -4.259792,3.36021 -4.28625,-3.36021 c -0.3175,-0.23812 -0.687917,-0.37041 -1.084792,-0.37041 H 14.399941 c -0.423333,0 -0.767292,0.3175 -0.820208,0.71437 l -3.254375,24.31521 c -0.02646,0.18521 0.02646,0.39688 0.15875,0.55563 0.132291,0.15875 0.3175,0.23812 0.529166,0.23812 h 15.901459 c 0.423333,0 0.767291,-0.3175 0.820208,-0.71437 l 0.661458,-4.94771 3.783542,2.38125 c 0.343958,0.21166 0.79375,0.21166 1.137708,0 l 3.81,-2.38125 0.661458,4.97416 c 0.05292,0.39688 0.396875,0.71438 0.820209,0.71438 h 25.347083 c 0.423333,0 0.767291,-0.26458 0.899583,-0.66146 l 1.825625,-5.31812 1.799167,5.31812 c 0.132291,0.39688 0.502708,0.66146 0.899583,0.66146 H 95.20369 c 0.423333,0 0.740833,-0.34396 0.740833,-0.74083 v -3.33375 l 3.704167,3.65125 c 0.291042,0.26458 0.66146,0.42333 1.05833,0.42333 h 26.00854 c 0.42334,0 0.74084,-0.34396 0.74084,-0.74083 v -1.4023 c 3.175,2.11667 7.62,3.36021 11.93271,3.36021 5.45041,0 10.82145,-1.98437 14.20812,-5.21229 v 3.25438 c 0,0.42333 0.34396,0.74083 0.74083,0.74083 h 15.875 c 0.42334,0 0.74084,-0.34396 0.74084,-0.74083 v -2.16959 l 2.54,2.48709 c 0.29104,0.26458 0.66146,0.42333 1.05833,0.42333 h 24.87083 c 0.42334,0 0.7673,-0.26458 0.89959,-0.66146 l 1.77271,-5.26521 1.82562,5.26521 c 0.13229,0.39688 0.50271,0.66146 0.89958,0.66146 h 25.84979 c 0.42334,0 0.74084,-0.34396 0.74084,-0.74083 v -3.38667 l 3.70416,3.70417 c 0.26459,0.26458 0.66146,0.42333 1.05834,0.42333 h 34.42229 c 0.42333,0 0.74083,-0.34396 0.74083,-0.74083 v -12.54125 h 8.83709 c 0.42333,0 0.74083,-0.34396 0.74083,-0.74084 v -11.00666 c 0.10583,-0.4498 -0.21167,-0.79375 -0.635,-0.79375 m -94.58854,15.84854 -2.96333,-2.93688 5.92666,-5.95312 z m 68.34187,6.64104 -6.24416,-6.24417 c 1.1377,-1.21708 1.95791,-2.48708 2.46062,-3.81 h 3.81 v 10.05417 z"
       id="path4"
       style="fill:#ffffff;stroke-width:0.264583" />
    <path
       d="m 139.41556,130.88937 c -4.6302,0 -9.26041,-1.42875 -12.40895,-3.81 v 2.09021 c 0,0.29104 -0.23813,0.52917 -0.52917,0.52917 h -25.63813 c -0.34395,0 -0.66145,-0.13229 -0.899578,-0.37042 l -4.471459,-4.41854 v 4.25979 c 0,0.29104 -0.238125,0.52917 -0.529166,0.52917 H 69.592024 c -0.3175,0 -0.582084,-0.21167 -0.687917,-0.50271 l -2.196042,-6.50875 -2.2225,6.50875 c -0.105833,0.29104 -0.370416,0.50271 -0.687916,0.50271 h -24.92375 c -0.291042,0 -0.555625,-0.21167 -0.582083,-0.52917 l -0.740834,-5.50333 -4.312708,2.69875 c -0.264583,0.15875 -0.608542,0.15875 -0.873125,0 l -4.312708,-2.69875 -0.740834,5.47687 c -0.05292,0.29105 -0.291041,0.52917 -0.582083,0.52917 H 11.357233 c -0.264584,0 -0.502709,-0.23812 -0.449792,-0.52917 l 3.175,-23.78604 c 0.02646,-0.29104 0.291042,-0.52916 0.582083,-0.52916 h 12.673542 c 0.343958,0 0.661458,0.10583 0.926041,0.3175 l 4.524375,3.54541 4.497917,-3.54541 c 0.264583,-0.21167 0.582083,-0.3175 0.926042,-0.3175 h 12.673541 c 0.291042,0 0.555625,0.21166 0.582084,0.52916 l 1.190625,8.91646 2.989791,-8.94292 c 0.105833,-0.29104 0.370417,-0.5027 0.687917,-0.5027 h 20.584583 c 0.3175,0 0.582083,0.21166 0.687917,0.5027 l 1.455208,4.31271 v -4.28625 c 0,-0.29104 0.238125,-0.52916 0.529167,-0.52916 h 19.843749 c 2.381247,0 5.873747,0.10583 8.837087,1.11125 0.8202,0.26458 1.5875,0.60854 2.24895,1.00541 v -1.5875 c 0,-0.29104 0.23813,-0.52916 0.52917,-0.52916 h 15.26646 c 0.29104,0 0.52917,0.23812 0.52917,0.52916 v 2.32834 c 3.30729,-2.56646 7.77875,-3.99521 12.59416,-3.99521 5.97959,0 11.43,2.24896 14.68438,6.00604 v -4.33917 c 0,-0.29104 0.23812,-0.52916 0.52916,-0.52916 h 15.21355 c 0.29104,0 0.52916,0.23812 0.52916,0.52916 v 3.33375 l 3.4925,-3.4925 c 0.23813,-0.23812 0.55563,-0.37041 0.89959,-0.37041 h 37.72958 c 0.34396,0 0.58208,0.1852 0.68792,0.5027 l 1.37583,4.04813 v -4.02167 c 0,-0.29104 0.23812,-0.52916 0.52917,-0.52916 h 19.81729 c 2.38125,0 5.9002,0.10583 8.86354,1.08479 0.37041,0.13229 0.74083,0.26458 1.11125,0.42333 v -0.97896 c 0,-0.29104 0.23812,-0.52916 0.52916,-0.52916 h 34.6075 c 0.29105,0 0.52917,0.23812 0.52917,0.52916 v 10.4775 c 0,0.29104 -0.23812,0.52917 -0.52917,0.52917 h -9.04875 v 12.77937 c 0,0.29105 -0.23812,0.52917 -0.52916,0.52917 h -34.05188 c -0.34396,0 -0.66146,-0.13229 -0.89958,-0.37042 l -4.47146,-4.445 v 4.31271 c 0,0.29104 -0.23812,0.52917 -0.52917,0.52917 h -25.39999 c -0.3175,0 -0.58209,-0.21167 -0.68792,-0.50271 l -2.2225,-6.45583 -2.16958,6.45583 c -0.10584,0.29104 -0.37042,0.50271 -0.68792,0.50271 H 174.7639 c -0.34396,0 -0.66146,-0.13229 -0.89959,-0.37042 l -3.30729,-3.25437 v 3.09562 c 0,0.29104 -0.23812,0.52917 -0.52916,0.52917 h -15.34584 c -0.29104,0 -0.52916,-0.23813 -0.52916,-0.52917 v -4.23333 c -3.25438,3.67771 -8.83709,5.95312 -14.7373,5.95312 m 115.12021,-2.8575 v -11.72104 h -4.63021 c -0.47625,1.50813 -1.42875,2.96334 -2.80458,4.31271 z m -68.60646,-6.90562 3.88938,-11.64167 -7.77875,7.77875 z"
       id="path5"
       style="stroke-width:0.264583" />
    <path
       class="st0"
       d="m 48.319524,108.18812 c 0.07937,0 0.132292,0.0529 0.15875,0.1323 l 2.38125,17.88583 c 0,0.0794 -0.05292,0.13229 -0.105833,0.13229 h -9.36625 c -0.07938,0 -0.132292,-0.0529 -0.15875,-0.13229 l -1.058334,-7.99042 c 0,-0.0529 -0.07938,-0.0794 -0.132291,-0.0529 l -7.170209,4.49791 c -0.07937,0.0529 -0.15875,0.0529 -0.211666,0 l -7.14375,-4.47146 c -0.05292,-0.0264 -0.132292,0 -0.132292,0.0529 l -1.058333,7.96396 c 0,0.0794 -0.07937,0.13229 -0.15875,0.13229 h -9.419167 c -0.07938,0 -0.132291,-0.0529 -0.105833,-0.13229 l 2.38125,-17.88583 c 0,-0.0794 0.07937,-0.1323 0.15875,-0.1323 h 9.419167 c 0.07938,0 0.15875,0.0265 0.238125,0.0794 l 5.847291,4.70958 c 0.05292,0.0529 0.132292,0.0529 0.211667,0 l 5.847291,-4.70958 c 0.05292,-0.0529 0.15875,-0.0794 0.238125,-0.0794 z m 10.027708,0 c -0.07937,0 -0.15875,0.0529 -0.185208,0.1323 l -5.979583,17.88583 c -0.02646,0.0529 0.02646,0.13229 0.07938,0.13229 h 9.392708 c 0.07937,0 0.15875,-0.0529 0.185208,-0.13229 l 4.7625,-14.34042 c 0,-0.0265 0.07937,-0.0265 0.07937,0 l 4.788958,14.34042 c 0.02646,0.0794 0.105834,0.13229 0.185209,0.13229 h 9.366249 c 0.05292,0 0.105834,-0.0529 0.07937,-0.13229 l -5.953124,-17.88583 c -0.02646,-0.0794 -0.105834,-0.1323 -0.185209,-0.1323 z m 53.022498,5.79438 c 0,-5.26521 -7.09083,-5.79438 -11.932707,-5.79438 h -7.328958 -2.407708 -7.14375 c -0.07937,0 -0.132292,0.0529 -0.132292,0.1323 v 17.88583 c 0,0.0794 0.05292,0.13229 0.132292,0.13229 h 9.36625 c 0.07938,0 0.132291,-0.0529 0.132291,-0.13229 v -13.07042 c 0,-0.0529 0.02646,-0.13229 0.105834,-0.13229 h 5.23875 c 1.772708,0 3.201458,2.69875 1.534583,4.20688 -1.455208,1.32291 -3.730625,1.74625 -4.28625,1.85208 -0.05292,0 -0.05292,0.0794 -0.02646,0.10583 l 7.064375,7.06438 c 0.0529,0.0529 0.13229,0.10583 0.21167,0.10583 h 10.50396 c 0.0529,0 0.0794,-0.0529 0.0264,-0.10583 l -5.84729,-5.87375 c -0.0529,-0.0529 -0.0265,-0.13229 0.0265,-0.15875 0.76729,-0.42334 4.7625,-2.91042 4.7625,-6.21771 m 135.54604,0 c 0,-5.26521 -7.17021,-5.79438 -12.01208,-5.79438 h -7.3025 -2.40771 -7.06437 c -0.0794,0 -0.1323,0.0529 -0.1323,0.1323 v 17.88583 c 0,0.0794 0.0529,0.13229 0.1323,0.13229 h 9.31333 c 0.0794,0 0.13229,-0.0529 0.13229,-0.13229 v -13.07042 c 0,-0.0529 0.0265,-0.13229 0.10583,-0.13229 h 5.21229 c 1.77271,0 3.22792,2.69875 1.56105,4.20688 -1.45521,1.32291 -3.73063,1.74625 -4.28625,1.85208 -0.0529,0 -0.0529,0.0794 -0.0265,0.10583 l 7.06437,7.06438 c 0.0529,0.0529 0.13229,0.10583 0.21167,0.10583 h 10.53042 c 0.0529,0 0.0794,-0.0529 0.0264,-0.10583 l -5.87375,-5.87375 c -0.0529,-0.0529 -0.0264,-0.13229 0.0265,-0.15875 0.79375,-0.42334 4.78896,-2.91042 4.78896,-6.21771 m -133.0325,12.22375 c 0,0.0794 0.0529,0.13229 0.13229,0.13229 h 9.36625 c 0.0794,0 0.1323,-0.0529 0.1323,-0.13229 v -17.88583 c 0,-0.0794 -0.0529,-0.1323 -0.1323,-0.1323 h -9.36625 c -0.0794,0 -0.13229,0.0529 -0.13229,0.1323 z m 80.01,-17.99167 c -0.0794,0 -0.15875,0.0529 -0.18521,0.13229 l -5.97958,17.85938 c -0.0265,0.0529 0.0265,0.13229 0.0794,0.13229 h 9.36625 c 0.0794,0 0.15875,-0.0529 0.1852,-0.13229 l 4.81542,-14.36688 c 0,-0.0264 0.0794,-0.0264 0.0794,0 l 4.7625,14.36688 c 0.0265,0.0794 0.10583,0.13229 0.15875,0.13229 h 9.36625 c 0.0529,0 0.10583,-0.0529 0.0794,-0.13229 l -5.97958,-17.85938 c -0.0265,-0.0794 -0.10584,-0.13229 -0.15875,-0.13229 z m -40.13729,9.04875 c 0,5.66209 -6.37646,10.26584 -14.31396,10.26584 -7.9375,0 -14.34041,-4.60375 -14.34041,-10.26584 0,-5.68854 6.40291,-10.29229 14.34041,-10.29229 7.91104,0 14.31396,4.60375 14.31396,10.29229 m -10.10708,0 c 0,-1.66687 -1.905,-3.04271 -4.23334,-3.04271 -2.32833,0 -4.25979,1.37584 -4.25979,3.04271 0,1.66688 1.93146,3.01625 4.25979,3.01625 2.3548,0 4.23334,-1.34937 4.23334,-3.01625 m 32.04104,-9.07521 c -0.0794,0 -0.15875,0.0265 -0.21167,0.0794 l -8.30791,8.33437 c -0.0265,0.0265 -0.0794,0 -0.0794,-0.0265 v -8.255 c 0,-0.0794 -0.0529,-0.1323 -0.13229,-0.1323 h -9.36625 c -0.0794,0 -0.13229,0.0529 -0.13229,0.1323 v 17.88583 c 0,0.0794 0.0529,0.13229 0.13229,0.13229 h 9.36625 c 0.0794,0 0.13229,-0.0529 0.13229,-0.13229 v -8.255 c 0,-0.0529 0.0529,-0.0794 0.0794,-0.0265 l 8.30791,8.33438 c 0.0529,0.0529 0.13229,0.10583 0.21167,0.10583 h 10.55687 c 0.0529,0 0.0794,-0.0529 0.0265,-0.10583 l -8.89,-8.89 c -0.0529,-0.0529 -0.0529,-0.1323 0,-0.18521 l 8.86354,-8.89 c 0.0265,-0.0265 0,-0.0794 -0.0265,-0.0794 h -10.53042 z m 101.49416,0.1323 c 0,-0.0794 -0.0529,-0.1323 -0.13229,-0.1323 h -28.70729 c -0.0794,0 -0.13229,0.0529 -0.13229,0.1323 v 4.57729 c 0,0.0794 0.0529,0.13229 0.13229,0.13229 h 9.39271 c 0.0794,0 0.13229,0.0529 0.13229,0.13229 v 13.04396 c 0,0.0794 0.0529,0.13229 0.13229,0.13229 h 9.39271 c 0.0794,0 0.13229,-0.0529 0.13229,-0.13229 v -13.04396 c 0,-0.0794 0.0529,-0.13229 0.13229,-0.13229 h 9.41917 c 0.0794,0 0.13229,-0.0529 0.13229,-0.13229 v -4.57729 z"
       id="path6"
       style="fill:#ffffff;stroke-width:0.264583" />
  </g>
</svg>
